<svg width="119" height="55" viewBox="0 0 119 55" fill="none" xmlns="http://www.w3.org/2000/svg">
<path d="M36.7205 21.7305H29.7212C29.5934 20.8249 29.3324 20.0206 28.9382 19.3175C28.544 18.6037 28.038 17.9964 27.4201 17.4957C26.8022 16.995 26.0884 16.6115 25.2788 16.3452C24.4798 16.0788 23.6115 15.9457 22.674 15.9457C20.9801 15.9457 19.5046 16.3665 18.2475 17.2081C16.9904 18.0391 16.0156 19.2536 15.3232 20.8516C14.6307 22.4389 14.2844 24.3672 14.2844 26.6364C14.2844 28.9695 14.6307 30.9297 15.3232 32.517C16.0263 34.1044 17.0064 35.3029 18.2635 36.1126C19.5206 36.9222 20.9748 37.3271 22.6261 37.3271C23.5529 37.3271 24.4105 37.2045 25.1989 36.9595C25.9979 36.7145 26.7063 36.3576 27.3242 35.8888C27.9421 35.4094 28.4535 34.8288 28.8583 34.147C29.2738 33.4652 29.5614 32.6875 29.7212 31.8139L36.7205 31.8459C36.5394 33.348 36.0866 34.7969 35.3622 36.1925C34.6484 37.5774 33.6843 38.8185 32.4698 39.9158C31.266 41.0025 29.8278 41.8654 28.1552 42.5046C26.4933 43.1332 24.6129 43.4474 22.5142 43.4474C19.5952 43.4474 16.9851 42.7869 14.6839 41.4659C12.3935 40.1449 10.5824 38.2326 9.25071 35.729C7.92969 33.2255 7.26918 30.1946 7.26918 26.6364C7.26918 23.0675 7.94034 20.0312 9.28267 17.5277C10.625 15.0241 12.4467 13.1172 14.7479 11.8068C17.049 10.4858 19.6378 9.82528 22.5142 9.82528C24.4105 9.82528 26.1683 10.0916 27.7876 10.6243C29.4176 11.157 30.8612 11.9347 32.1183 12.9574C33.3754 13.9695 34.3981 15.2106 35.1864 16.6808C35.9854 18.1509 36.4968 19.8342 36.7205 21.7305ZM41.6824 43V10.2727H63.7349V15.9776H48.6017V23.7759H62.6003V29.4808H48.6017V37.2951H63.7988V43H41.6824ZM69.2361 43V10.2727H76.1555V37.2951H90.186V43H69.2361Z" fill="black"/>
<path d="M6.47045 49.2188H5.22614C5.20341 49.0578 5.15701 48.9148 5.08693 48.7898C5.01686 48.6629 4.92689 48.5549 4.81704 48.4659C4.7072 48.3769 4.5803 48.3087 4.43636 48.2614C4.29432 48.214 4.13996 48.1903 3.97329 48.1903C3.67216 48.1903 3.40985 48.2652 3.18636 48.4148C2.96288 48.5625 2.78958 48.7784 2.66648 49.0625C2.54337 49.3447 2.48182 49.6875 2.48182 50.0909C2.48182 50.5057 2.54337 50.8542 2.66648 51.1364C2.79148 51.4186 2.96572 51.6316 3.1892 51.7756C3.41269 51.9195 3.67121 51.9915 3.96477 51.9915C4.12954 51.9915 4.28201 51.9697 4.42216 51.9261C4.5642 51.8826 4.69015 51.8191 4.8 51.7358C4.90985 51.6506 5.00076 51.5473 5.07273 51.4261C5.14659 51.3049 5.19773 51.1667 5.22614 51.0114L6.47045 51.017C6.43826 51.2841 6.35776 51.5417 6.22898 51.7898C6.10208 52.036 5.93068 52.2566 5.71477 52.4517C5.50076 52.6449 5.24508 52.7983 4.94773 52.9119C4.65227 53.0237 4.31799 53.0795 3.94489 53.0795C3.42595 53.0795 2.96193 52.9621 2.55284 52.7273C2.14564 52.4924 1.82367 52.1525 1.58693 51.7074C1.35208 51.2623 1.23466 50.7235 1.23466 50.0909C1.23466 49.4564 1.35398 48.9167 1.59261 48.4716C1.83125 48.0265 2.15511 47.6875 2.5642 47.4545C2.97329 47.2197 3.43352 47.1023 3.94489 47.1023C4.28201 47.1023 4.59451 47.1496 4.88239 47.2443C5.17216 47.339 5.42879 47.4773 5.65227 47.6591C5.87576 47.839 6.05758 48.0597 6.19773 48.321C6.33977 48.5824 6.43068 48.8816 6.47045 49.2188ZM9.70267 47.1818V53H8.47256V47.1818H9.70267ZM12.8859 47.1818L14.2921 51.6023H14.3461L15.7552 47.1818H17.1188L15.1132 53H13.5279L11.5194 47.1818H12.8859ZM20.1692 47.1818V53H18.9391V47.1818H20.1692ZM22.3013 53V47.1818H23.5314V51.9858H26.0257V53H22.3013ZM30.9319 53V47.1818H34.8524V48.196H32.162V49.5824H34.6507V50.5966H32.162V51.9858H34.8637V53H30.9319ZM41.8168 47.1818V53H40.7543L38.2231 49.3381H38.1805V53H36.9504V47.1818H38.0299L40.5413 50.8409H40.5924V47.1818H41.8168ZM47.8111 49.0625C47.7714 48.9242 47.7155 48.8021 47.6435 48.696C47.5716 48.5881 47.4835 48.4972 47.3793 48.4233C47.277 48.3475 47.1596 48.2898 47.027 48.25C46.8964 48.2102 46.7515 48.1903 46.5924 48.1903C46.295 48.1903 46.0337 48.2642 45.8083 48.4119C45.5848 48.5597 45.4106 48.7746 45.2856 49.0568C45.1606 49.3371 45.0981 49.6799 45.0981 50.0852C45.0981 50.4905 45.1596 50.8352 45.2827 51.1193C45.4058 51.4034 45.5801 51.6203 45.8055 51.7699C46.0308 51.9176 46.2969 51.9915 46.6037 51.9915C46.8822 51.9915 47.1198 51.9422 47.3168 51.8438C47.5157 51.7434 47.6672 51.6023 47.7714 51.4205C47.8774 51.2386 47.9305 51.0237 47.9305 50.7756L48.1805 50.8125H46.6805V49.8864H49.1151V50.6193C49.1151 51.1307 49.0072 51.5701 48.7912 51.9375C48.5753 52.303 48.278 52.5852 47.8992 52.7841C47.5204 52.9811 47.0867 53.0795 46.5981 53.0795C46.0526 53.0795 45.5734 52.9593 45.1606 52.7188C44.7477 52.4763 44.4257 52.1326 44.1947 51.6875C43.9655 51.2405 43.8509 50.7102 43.8509 50.0966C43.8509 49.625 43.9191 49.2045 44.0555 48.8352C44.1937 48.464 44.3869 48.1496 44.635 47.892C44.8831 47.6345 45.1719 47.4384 45.5015 47.304C45.831 47.1695 46.188 47.1023 46.5725 47.1023C46.902 47.1023 47.2089 47.1506 47.493 47.2472C47.777 47.3419 48.0289 47.4763 48.2486 47.6506C48.4702 47.8248 48.6511 48.0322 48.7912 48.2727C48.9314 48.5114 49.0214 48.7746 49.0611 49.0625H47.8111ZM52.3892 47.1818V53H51.1591V47.1818H52.3892ZM59.3878 47.1818V53H58.3253L55.794 49.3381H55.7514V53H54.5213V47.1818H55.6009L58.1122 50.8409H58.1634V47.1818H59.3878ZM61.5241 53V47.1818H65.4446V48.196H62.7542V49.5824H65.2429V50.5966H62.7542V51.9858H65.4559V53H61.5241ZM67.5426 53V47.1818H71.463V48.196H68.7727V49.5824H71.2613V50.5966H68.7727V51.9858H71.4744V53H67.5426ZM73.561 53V47.1818H75.8564C76.2958 47.1818 76.6708 47.2604 76.9814 47.4176C77.2939 47.5729 77.5316 47.7936 77.6945 48.0795C77.8593 48.3636 77.9417 48.6979 77.9417 49.0824C77.9417 49.4687 77.8583 49.8011 77.6917 50.0795C77.525 50.3561 77.2835 50.5682 76.9672 50.7159C76.6529 50.8636 76.2722 50.9375 75.8252 50.9375H74.2883V49.9489H75.6263C75.8612 49.9489 76.0563 49.9167 76.2116 49.8523C76.3669 49.7879 76.4824 49.6913 76.5582 49.5625C76.6358 49.4337 76.6746 49.2737 76.6746 49.0824C76.6746 48.8892 76.6358 48.7263 76.5582 48.5938C76.4824 48.4612 76.3659 48.3608 76.2087 48.2926C76.0534 48.2225 75.8574 48.1875 75.6207 48.1875H74.7911V53H73.561ZM76.703 50.3523L78.1491 53H76.7911L75.3763 50.3523H76.703ZM81.1611 47.1818V53H79.931V47.1818H81.1611ZM88.1597 47.1818V53H87.0972L84.5659 49.3381H84.5233V53H83.2932V47.1818H84.3727L86.8841 50.8409H86.9352V47.1818H88.1597ZM94.154 49.0625C94.1142 48.9242 94.0583 48.8021 93.9863 48.696C93.9144 48.5881 93.8263 48.4972 93.7221 48.4233C93.6199 48.3475 93.5024 48.2898 93.3699 48.25C93.2392 48.2102 93.0943 48.1903 92.9352 48.1903C92.6379 48.1903 92.3765 48.2642 92.1511 48.4119C91.9276 48.5597 91.7534 48.7746 91.6284 49.0568C91.5034 49.3371 91.4409 49.6799 91.4409 50.0852C91.4409 50.4905 91.5024 50.8352 91.6255 51.1193C91.7486 51.4034 91.9229 51.6203 92.1483 51.7699C92.3736 51.9176 92.6397 51.9915 92.9466 51.9915C93.225 51.9915 93.4627 51.9422 93.6596 51.8438C93.8585 51.7434 94.01 51.6023 94.1142 51.4205C94.2202 51.2386 94.2733 51.0237 94.2733 50.7756L94.5233 50.8125H93.0233V49.8864H95.4579V50.6193C95.4579 51.1307 95.35 51.5701 95.1341 51.9375C94.9182 52.303 94.6208 52.5852 94.242 52.7841C93.8632 52.9811 93.4295 53.0795 92.9409 53.0795C92.3954 53.0795 91.9163 52.9593 91.5034 52.7188C91.0905 52.4763 90.7685 52.1326 90.5375 51.6875C90.3083 51.2405 90.1937 50.7102 90.1937 50.0966C90.1937 49.625 90.2619 49.2045 90.3983 48.8352C90.5365 48.464 90.7297 48.1496 90.9778 47.892C91.2259 47.6345 91.5147 47.4384 91.8443 47.304C92.1738 47.1695 92.5308 47.1023 92.9153 47.1023C93.2449 47.1023 93.5517 47.1506 93.8358 47.2472C94.1199 47.3419 94.3718 47.4763 94.5915 47.6506C94.813 47.8248 94.9939 48.0322 95.1341 48.2727C95.2742 48.5114 95.3642 48.7746 95.404 49.0625H94.154ZM100.474 53V47.1818H101.704V51.9858H104.198V53H100.474ZM107.284 53H105.966L107.974 47.1818H109.559L111.565 53H110.247L108.79 48.5114H108.744L107.284 53ZM107.201 50.7131H110.315V51.6733H107.201V50.7131ZM113.385 53V47.1818H115.715C116.143 47.1818 116.5 47.2453 116.786 47.3722C117.072 47.4991 117.287 47.6752 117.431 47.9006C117.575 48.1241 117.647 48.3816 117.647 48.6733C117.647 48.9006 117.601 49.1004 117.51 49.2727C117.419 49.4432 117.294 49.5833 117.135 49.6932C116.978 49.8011 116.798 49.8778 116.596 49.9233V49.9801C116.817 49.9896 117.025 50.0521 117.218 50.1676C117.413 50.2831 117.571 50.4451 117.692 50.6534C117.813 50.8598 117.874 51.1061 117.874 51.392C117.874 51.7008 117.797 51.9763 117.644 52.2188C117.492 52.4593 117.268 52.6496 116.971 52.7898C116.673 52.9299 116.307 53 115.871 53H113.385ZM114.615 51.9943H115.618C115.961 51.9943 116.211 51.929 116.368 51.7983C116.526 51.6657 116.604 51.4896 116.604 51.2699C116.604 51.1089 116.565 50.9669 116.488 50.8438C116.41 50.7206 116.299 50.6241 116.155 50.554C116.013 50.4839 115.844 50.4489 115.647 50.4489H114.615V51.9943ZM114.615 49.6165H115.527C115.696 49.6165 115.846 49.5871 115.976 49.5284C116.109 49.4678 116.213 49.3826 116.289 49.2727C116.366 49.1629 116.405 49.0312 116.405 48.8778C116.405 48.6676 116.33 48.4981 116.181 48.3693C116.033 48.2405 115.823 48.1761 115.55 48.1761H114.615V49.6165Z" fill="black"/>
</svg>
